HIERARCHY
ROOT Hips
{
  OFFSET 1.44925e-005 102.336 -0.101585
  CHANNELS 6 Xposition Yposition Zposition Zrotation Xrotation Yrotation
  JOINT LeftUpLeg
  {
    OFFSET 8.9458 -8.66707 0.101652
    CHANNELS 3 Zrotation Xrotation Yrotation
    JOINT LeftLeg
    {
      OFFSET 0 -44.4227 1.3727
      CHANNELS 3 Zrotation Xrotation Yrotation
      JOINT LeftFoot
      {
        OFFSET -0.253549 -42.0924 -1.46059
        CHANNELS 3 Zrotation Xrotation Yrotation
        JOINT LeftToes
        {
          OFFSET -0.04 -4.41509 8.4991
          CHANNELS 3 Zrotation Xrotation Yrotation
          End Site
          {
            OFFSET 0.08 -0.047448 9.77979
          }
        }
      }
    }
  }
  JOINT Spine
  {
    OFFSET 0 11.8905 0
    CHANNELS 3 Zrotation Xrotation Yrotation
    JOINT Spine1
    {
      OFFSET 0 25.6574 0.127663
      CHANNELS 3 Zrotation Xrotation Yrotation
      JOINT RightShoulder
      {
        OFFSET -8.99 -0.362252 -0.22
        CHANNELS 3 Zrotation Xrotation Yrotation
        JOINT RightArm
        {
          OFFSET -10.2827 -0.00338 0.322123
          CHANNELS 3 Zrotation Xrotation Yrotation
          JOINT RightForeArm
          {
            OFFSET -26.364 0.099144 -1.42434
            CHANNELS 3 Zrotation Xrotation Yrotation
            JOINT RightHand
            {
              OFFSET -22.0324 0.085362 1.02216
              CHANNELS 3 Zrotation Xrotation Yrotation
              End Site
              {
                OFFSET -13.3284 -0.6 1.50291
              }
            }
          }
        }
      }
      JOINT LeftShoulder1
      {
        OFFSET 8.99 -0.362252 -0.22
        CHANNELS 3 Zrotation Xrotation Yrotation
        JOINT LeftArm
        {
          OFFSET 10.2827 -0.00337999 0.322123
          CHANNELS 3 Zrotation Xrotation Yrotation
          JOINT LeftForeArm
          {
            OFFSET 26.2597 0.099144 -1.42434
            CHANNELS 3 Zrotation Xrotation Yrotation
            JOINT LeftHand
            {
              OFFSET 22.0902 0.085362 1.02216
              CHANNELS 3 Zrotation Xrotation Yrotation
              End Site
              {
                OFFSET 13.419 -0.6 1.50291
              }
            }
          }
        }
      }
      JOINT Head
      {
        OFFSET 0 8.73416 0.011341
        CHANNELS 3 Zrotation Xrotation Yrotation
        End Site
        {
          OFFSET -0.29 12.7742 2.51395
        }
      }
    }
  }
  JOINT RightUpLeg
  {
    OFFSET -8.9458 -8.66707 0.101652
    CHANNELS 3 Zrotation Xrotation Yrotation
    JOINT RightLeg
    {
      OFFSET 0 -44.4227 1.3727
      CHANNELS 3 Zrotation Xrotation Yrotation
      JOINT RightFoot
      {
        OFFSET 0.253549 -42.0924 -1.46059
        CHANNELS 3 Zrotation Xrotation Yrotation
        JOINT RightToes
        {
          OFFSET 0.04 -4.41509 8.4991
          CHANNELS 3 Zrotation Xrotation Yrotation
          End Site
          {
            OFFSET -0.08 -0.137448 9.77979
          }
        }
      }
    }
  }
}
MOTION
Frames:	18
Frame Time:	0.0333333
106.683 8.14796 5.72347 -93.5319 2.5028 -92.7458 -3.44281 -1.28628 -0.672287 0.949743 10.1267 12.615 -4.53168 22.4904 1.03493 -1.01069e-009 8.75179e-006 -1.4907e-008 12.1953 -2.95329 1.94034 -12.1779 13.2256 4.89294 30.9295 1.64124 0.352688 51.0296 -23.465 1.3053 12.7918 60.7443 -3.47298 2.13303 10.0189 -0.404427 -29.0387 2.26062 -2.95769 -36.7208 13.6458 -7.31112 -17.2376 48.7563 -1.2053 5.82328 9.61819 -0.917488 3.56854 -28.4095 -3.48298 1.02408 -0.13428 -2.2474 0.217501 8.93394 -5.58494 7.90976 10.3131 -1.29168 0.0462048 0.000530888 0.662642 
106.683 8.14796 5.72347 -93.4738 2.50607 -92.7311 -3.44433 -1.35662 -0.701779 0.961173 10.1437 12.6048 -4.51943 22.5039 1.03559 -1.01069e-009 8.75179e-006 -1.4907e-008 12.2082 -3.01726 1.93893 -12.1749 13.2128 4.88368 30.9233 1.64124 0.352688 51.0183 -23.4739 1.27643 12.8086 60.8014 -3.50274 1.85086 10.009 -0.321495 -29.0375 2.26062 -2.95769 -36.7256 13.645 -7.27926 -17.2356 48.7677 -1.20557 5.82328 9.61819 -0.917488 3.5871 -28.3646 -3.45681 1.02167 -0.196412 -2.23849 0.221554 8.93647 -5.63695 8.02637 10.3164 -1.31018 0.0462048 0.000530888 0.662642 
106.682 8.14895 5.72347 -93.3885 2.50964 -92.7023 -3.44567 -1.46182 -0.753678 0.980888 10.1715 12.6049 -4.54478 22.5391 1.04292 -1.01069e-009 8.75179e-006 -1.4907e-008 12.192 -3.11633 1.93324 -12.1168 13.1996 4.85275 30.9124 1.64124 0.352688 51.009 -23.4524 1.26158 12.8414 60.6947 -3.54899 1.57133 9.99369 -0.459248 -29.0302 2.26062 -2.95769 -36.7726 13.5718 -7.22568 -17.2254 48.8479 -1.2075 5.82328 9.61819 -0.917488 3.58874 -28.3062 -3.40036 1.01789 -0.301815 -2.23916 0.235677 8.96382 -5.76682 8.16085 10.3343 -1.33243 0.0462048 0.000530888 0.662642 
106.679 8.1545 5.72441 -93.3342 2.52324 -92.6975 -3.43506 -1.52915 -0.774929 0.989893 10.1966 12.6206 -4.62089 22.5673 1.06391 -1.01069e-009 8.75179e-006 -1.4907e-008 12.1856 -3.19581 1.93326 -12.0683 13.2115 4.83416 30.8988 1.64124 0.352688 51.0008 -23.3808 1.26569 12.8575 60.4521 -3.54591 1.59091 9.98772 -0.764203 -29.0148 2.26062 -2.95769 -36.8305 13.4659 -7.18346 -17.2134 48.9258 -1.20938 5.82328 9.61819 -0.917488 3.5815 -28.2691 -3.3706 1.02049 -0.367935 -2.24281 0.252117 8.97847 -5.91747 8.20401 10.3674 -1.34134 0.0462048 0.000530888 0.662642 
106.676 8.16528 5.72789 -93.3002 2.5514 -92.7238 -3.40029 -1.56842 -0.753599 0.985347 10.2201 12.6238 -4.66478 22.5587 1.07516 -1.01069e-009 8.75179e-006 -1.4907e-008 12.2362 -3.28283 1.95032 -12.1003 13.2756 4.85371 30.8819 1.64124 0.352688 51.013 -23.3462 1.27329 12.8384 60.3587 -3.50275 1.71878 9.9896 -0.878628 -29.0032 2.26062 -2.95769 -36.8474 13.4146 -7.17589 -17.2086 48.9368 -1.20965 5.82328 9.61819 -0.917488 3.58535 -28.2652 -3.37745 1.03845 -0.382288 -2.23019 0.264318 8.9434 -6.04134 8.25346 10.3918 -1.35071 0.0462048 0.000530888 0.662642 
106.673 8.17597 5.7311 -93.2709 2.5852 -92.7392 -3.36564 -1.60749 -0.730385 0.990078 10.2562 12.5816 -4.60982 22.5164 1.05924 -1.01069e-009 8.75179e-006 -1.4907e-008 12.2997 -3.37963 1.96846 -12.1529 13.3671 4.87869 30.8659 1.64124 0.352688 51.0518 -23.4096 1.29021 12.8142 60.5078 -3.49857 1.6746 9.99058 -0.705403 -29.0048 2.26062 -2.95769 -36.8271 13.4496 -7.20021 -17.2137 48.9051 -1.20888 5.82328 9.61819 -0.917488 3.58523 -28.2815 -3.35252 1.06137 -0.367149 -2.20096 0.271395 8.87142 -6.17396 8.45909 10.3933 -1.38322 0.0462048 0.000530888 0.662642 
106.672 8.18103 5.73424 -93.2487 2.61247 -92.7158 -3.35615 -1.64663 -0.746665 1.02131 10.3 12.4962 -4.51292 22.4699 1.03221 -1.01069e-009 8.75179e-006 -1.4907e-008 12.3235 -3.44951 1.96909 -12.1467 13.4265 4.87221 30.8588 1.64124 0.352688 51.0734 -23.479 1.31187 12.8249 60.6716 -3.54826 1.50767 9.99123 -0.499017 -29.0129 2.26062 -2.95769 -36.812 13.5332 -7.23076 -17.2233 48.8659 -1.20551 5.82328 9.61819 -0.917488 3.56605 -28.2887 -3.25717 1.07941 -0.350422 -2.17151 0.273734 8.81041 -6.35794 8.75258 10.3879 -1.42912 0.0462048 0.000530888 0.662642 
106.675 8.18287 5.73685 -93.246 2.63463 -92.6812 -3.36554 -1.6578 -0.788451 1.06266 10.3221 12.3944 -4.48972 22.4323 1.02487 -1.01069e-009 8.75179e-006 -1.4907e-008 12.3423 -3.46337 1.95709 -12.1226 13.4287 4.852 30.8631 1.64124 0.352688 51.0438 -23.4365 1.31146 12.8573 60.6448 -3.56839 1.44433 9.9913 -0.460328 -29.0036 2.26062 -2.95769 -36.8305 13.5686 -7.24597 -17.2441 48.8498 -1.18265 5.82328 9.61819 -0.917488 3.55047 -28.2773 -3.15444 1.09874 -0.340734 -2.15518 0.272244 8.79252 -6.52287 8.88342 10.3845 -1.4495 0.0462048 0.000530888 0.662642 
106.685 8.18363 5.73848 -93.2445 2.66283 -92.6716 -3.36389 -1.65422 -0.81299 1.08572 10.3176 12.2995 -4.56176 22.3898 1.0423 -1.01069e-009 8.75179e-006 -1.4907e-008 12.4058 -3.47279 1.95302 -12.1485 13.428 4.85358 30.8649 1.64124 0.352688 50.9976 -23.3254 1.29268 12.8691 60.489 -3.52057 1.51366 9.99097 -0.540278 -28.9628 2.26062 -2.95769 -36.8899 13.4554 -7.25156 -17.2959 48.9274 -1.1081 5.82328 9.61819 -0.917488 3.5585 -28.2719 -3.1244 1.13315 -0.349001 -2.14386 0.271182 8.80593 -6.56125 8.75573 10.36 -1.42769 0.0462048 0.000530888 0.662642 
106.692 8.18531 5.73862 -93.2253 2.69425 -92.6803 -3.34221 -1.66965 -0.810091 1.0866 10.3141 12.2239 -4.63965 22.3374 1.06086 -1.01069e-009 8.75179e-006 -1.4907e-008 12.4668 -3.5312 1.96384 -12.1759 13.4797 4.86949 30.8567 1.64124 0.352688 50.9911 -23.2847 1.30038 12.8658 60.3762 -3.49184 1.57644 9.9904 -0.633152 -28.9121 2.26062 -2.95769 -36.974 13.2264 -7.27245 -17.3748 49.1106 -0.986104 5.82328 9.61819 -0.917488 3.56651 -28.2957 -3.16723 1.17804 -0.375376 -2.12586 0.272139 8.82048 -6.49242 8.549 10.3027 -1.39127 0.0462048 0.000530888 0.662642 
106.693 8.18787 5.73619 -93.1982 2.72254 -92.6791 -3.31142 -1.70851 -0.796779 1.08279 10.3385 12.1569 -4.65241 22.2872 1.06245 -1.01069e-009 8.75179e-006 -1.4907e-008 12.477 -3.61853 1.9795 -12.1477 13.5662 4.8752 30.8391 1.64124 0.352873 51.0278 -23.348 1.3498 12.8912 60.3803 -3.56603 1.57387 9.98972 -0.693528 -28.8802 2.26054 -2.95769 -37.0407 13.0484 -7.32063 -17.4572 49.2702 -0.866584 5.82328 9.61819 -0.917488 3.54689 -28.3362 -3.23579 1.22175 -0.394554 -2.09577 0.271815 8.80708 -6.46205 8.45496 10.2625 -1.37383 0.0462048 0.000530888 0.662642 
106.693 8.18941 5.73262 -93.1863 2.7411 -92.67 -3.2907 -1.74098 -0.786554 1.08266 10.3803 12.0852 -4.61544 22.2543 1.05167 -1.01069e-009 8.75179e-006 -1.4907e-008 12.4776 -3.68178 1.99282 -12.127 13.6392 4.88143 30.8223 1.64124 0.353609 51.0753 -23.4251 1.39974 12.9424 60.4603 -3.68425 1.54898 9.98905 -0.683904 -28.8582 2.2604 -2.95769 -37.0622 13.0231 -7.38385 -17.5151 49.2885 -0.796237 5.82328 9.61819 -0.917488 3.51597 -28.3649 -3.30817 1.24734 -0.385207 -2.06593 0.26653 8.76738 -6.53531 8.48363 10.28 -1.3795 0.0462048 0.000530888 0.662642 
106.691 8.19054 5.73023 -93.1841 2.74667 -92.6745 -3.28798 -1.76443 -0.777105 1.08039 10.4245 12.0103 -4.57731 22.2379 1.0412 -1.01069e-009 8.75179e-006 -1.4907e-008 12.5228 -3.73021 2.00883 -12.1948 13.7033 4.91261 30.7964 1.64124 0.354802 51.1297 -23.4464 1.41441 12.9494 60.5213 -3.70427 1.52732 9.98842 -0.607413 -28.818 2.26048 -2.95769 -37.0536 13.1207 -7.44968 -17.5359 49.1877 -0.78505 5.82328 9.61819 -0.917488 3.49658 -28.381 -3.38856 1.24279 -0.359298 -2.04755 0.259643 8.71831 -6.63025 8.58076 10.311 -1.39682 0.0462048 0.000530888 0.662642 
106.685 8.19139 5.72786 -93.1727 2.74769 -92.6904 -3.28769 -1.80271 -0.758922 1.07415 10.48 11.9401 -4.56219 22.2166 1.03621 -1.01069e-009 8.75179e-006 -1.4907e-008 12.5905 -3.79855 2.03191 -12.3099 13.7836 4.9593 30.7394 1.64124 0.356562 51.2084 -23.429 1.40336 12.8752 60.4896 -3.58529 1.51548 9.98769 -0.551289 -28.7729 2.26072 -2.95769 -37.0241 13.3245 -7.52102 -17.5171 49.0102 -0.832415 5.82328 9.61819 -0.917488 3.47121 -28.4072 -3.4727 1.22126 -0.335008 -2.03278 0.259711 8.66235 -6.66574 8.71982 10.2916 -1.4173 0.0462048 0.000530888 0.662642 
106.675 8.1921 5.71929 -93.1575 2.75756 -92.6984 -3.27044 -1.84665 -0.731649 1.06925 10.541 11.8814 -4.56674 22.1733 1.03309 -1.01069e-009 8.75179e-006 -1.4907e-008 12.6333 -3.86361 2.05549 -12.3776 13.8552 4.99254 30.6668 1.64124 0.35875 51.2913 -23.4147 1.39182 12.7864 60.3883 -3.44839 1.54019 9.98678 -0.580815 -28.7652 2.26108 -2.95769 -36.9569 13.6023 -7.59459 -17.4817 48.7764 -0.90829 5.82328 9.61819 -0.917488 3.42266 -28.4443 -3.54099 1.21057 -0.314408 -2.01504 0.271046 8.6056 -6.65351 8.81829 10.2398 -1.42913 0.0462048 0.000530888 0.662642 
106.672 8.19281 5.71362 -93.1504 2.77857 -92.6953 -3.239 -1.86993 -0.707763 1.06692 10.5776 11.8438 -4.57553 22.1246 1.03092 -1.01069e-009 8.75179e-006 -1.4907e-008 12.6563 -3.89951 2.07077 -12.3883 13.8951 5.00626 30.6348 1.64124 0.361224 51.3276 -23.4086 1.39698 12.765 60.2965 -3.41354 1.59608 9.98579 -0.660449 -28.7931 2.2615 -2.95769 -36.8782 13.7725 -7.65314 -17.4829 48.6086 -0.928825 5.82328 9.61819 -0.917488 3.38071 -28.4664 -3.57564 1.22049 -0.304275 -2.00283 0.289326 8.57095 -6.64114 8.78323 10.2223 -1.42242 0.0462048 0.000530888 0.662642 
106.68 8.19364 5.71182 -93.15 2.80373 -92.6944 -3.21126 -1.87288 -0.696031 1.06922 10.5847 11.8264 -4.57252 22.1015 1.0296 -1.01069e-009 8.75179e-006 -1.4907e-008 12.6913 -3.93409 2.07718 -12.396 13.9464 5.01554 30.66 1.64124 0.363844 51.3109 -23.3872 1.4278 12.7952 60.2465 -3.44508 1.60807 9.98487 -0.717702 -28.8036 2.26192 -2.95769 -36.8564 13.71 -7.69779 -17.5394 48.6209 -0.857791 5.82328 9.61819 -0.917488 3.37402 -28.474 -3.58207 1.23917 -0.303113 -1.99985 0.305586 8.56001 -6.65316 8.69048 10.2447 -1.40948 0.0462048 0.000530888 0.662642 
106.685 8.19475 5.7117 -93.1416 2.82491 -92.7006 -3.20059 -1.8796 -0.700434 1.07808 10.5821 11.8114 -4.55749 22.1007 1.02878 -1.01069e-009 8.75179e-006 -1.4907e-008 12.739 -4.0128 2.08456 -12.4207 14.058 5.03172 30.6862 1.64124 0.36647 51.2937 -23.3422 1.47599 12.8091 60.2401 -3.43955 1.51694 9.98421 -0.690563 -28.7713 2.26229 -2.95794 -36.8923 13.5998 -7.75356 -17.5974 48.6834 -0.784345 5.82328 9.61819 -0.917488 3.37323 -28.5081 -3.59567 1.25375 -0.304836 -1.9955 0.312915 8.54981 -6.69013 8.70238 10.2515 -1.4118 0.0462048 0.000530888 0.662642 
